<?xml version="1.0" encoding="UTF-8"?>
<svg version="1.1" xmlns="http://www.w3.org/2000/svg" width="1200" height="1200">
<path d="M0 0 C5.82004008 4.17524614 9.68922313 9.48831127 11.15625 16.546875 C12.212485 25.03196281 10.96360081 31.43979151 6.15625 38.546875 C4.5790321 40.43527373 3.03168635 41.93935813 1.15625 43.546875 C9.17980712 49.56454284 17.384649 49.87518735 27.08984375 49.9375 C34.00720363 50.13930304 39.38374762 51.92423761 44.46875 56.734375 C48.14894264 62.86802939 49.45898465 67.48671814 48.15625 74.546875 C49.43958221 74.54021317 49.43958221 74.54021317 50.74884033 74.53341675 C58.81202909 74.49334099 66.8751844 74.46289107 74.93844986 74.44325066 C79.08384704 74.43281389 83.22916191 74.41865665 87.37451172 74.39599609 C91.37507689 74.37426389 95.37556291 74.36230557 99.37618256 74.35712051 C100.90240475 74.35342544 102.42862261 74.34620989 103.9548111 74.33541489 C106.09269064 74.32089482 108.23024314 74.31889725 110.36816406 74.31982422 C111.5850592 74.315383 112.80195435 74.31094177 114.0557251 74.30636597 C117.05760543 74.5392231 118.72497238 74.80567253 121.15625 76.546875 C122.59375 79.859375 122.59375 79.859375 123.15625 83.546875 C121.96875 86.421875 121.96875 86.421875 120.15625 88.546875 C116.33495381 89.8206404 112.74942169 89.67051686 108.76953125 89.64453125 C108.04519897 89.64352417 107.3208667 89.64251709 106.57458496 89.64147949 C103.87262384 89.63625326 101.1706853 89.62229198 98.46875 89.609375 C92.425625 89.58875 86.3825 89.568125 80.15625 89.546875 C80.15625 104.726875 80.15625 119.906875 80.15625 135.546875 C85.36792969 135.51207031 90.57960938 135.47726562 95.94921875 135.44140625 C99.25326643 135.42607548 102.55727018 135.41163349 105.86132812 135.40039062 C111.10434083 135.3824654 116.34719618 135.36127219 121.59008789 135.32055664 C125.81760189 135.28793226 130.04494711 135.27001549 134.27257729 135.26224327 C135.884511 135.25670528 137.49643559 135.24589085 139.10829735 135.22968483 C141.36821747 135.20786918 143.62744249 135.20490973 145.88745117 135.20629883 C147.17318527 135.19963699 148.45891937 135.19297516 149.78361511 135.18611145 C153.42690885 135.5758268 155.30629484 136.271165 158.15625 138.546875 C159.28125 141.921875 159.28125 141.921875 159.15625 145.546875 C157.18694619 148.27751453 155.59907963 150.20615999 152.21828163 151.00451386 C149.81231448 151.19078105 147.45308322 151.20834455 145.0400238 151.17506409 C144.11977466 151.18215847 143.19952552 151.18925286 142.25139004 151.19656223 C139.16643665 151.21417058 136.08273842 151.19602267 132.99780273 151.17797852 C130.78682887 151.18311619 128.5758591 151.19039632 126.36489868 151.19966125 C120.35876561 151.21820142 114.35307551 151.20522027 108.34696078 151.18557096 C102.06675608 151.16920698 95.78657994 151.17799412 89.50636292 151.18309021 C78.96030943 151.18761334 68.41441297 151.171831 57.8684082 151.14379883 C47.01677081 151.11495464 36.16538593 151.10788121 25.3137207 151.12329102 C12.23644547 151.14183584 -0.84070023 151.14012023 -13.9179821 151.12107658 C-18.91354425 151.11419537 -23.90901258 151.11524952 -28.90457344 151.12262154 C-34.78401177 151.13026905 -40.66308532 151.11820812 -46.5424614 151.09077263 C-48.7032138 151.08387195 -50.86400017 151.08380873 -53.02475166 151.09098816 C-55.96841398 151.09964365 -58.91094038 151.08379283 -61.85450745 151.0615387 C-62.71490885 151.06977946 -63.57531025 151.07802023 -64.46178442 151.08651072 C-68.28657949 151.03293128 -70.22004767 151.00082256 -73.37823391 148.70220852 C-75.37176608 145.77032211 -75.35094908 144.02481153 -74.84375 140.546875 C-73.06390595 137.4109593 -72.32066793 136.70584764 -68.84375 135.546875 C-67.47782817 135.46120254 -66.10810142 135.42913853 -64.73950195 135.43334961 C-63.91887772 135.43342514 -63.09825348 135.43350067 -62.25276184 135.43357849 C-60.9307502 135.44132042 -60.9307502 135.44132042 -59.58203125 135.44921875 C-58.22334175 135.45134117 -58.22334175 135.45134117 -56.83720398 135.45350647 C-53.94351909 135.45910499 -51.04991151 135.47165719 -48.15625 135.484375 C-46.19466258 135.48939019 -44.23307394 135.49395307 -42.27148438 135.49804688 C-37.46220979 135.50907393 -32.652993 135.52633753 -27.84375 135.546875 C-27.84375 132.246875 -27.84375 128.946875 -27.84375 125.546875 C-29.39835938 125.63388672 -29.39835938 125.63388672 -30.984375 125.72265625 C-32.35412156 125.76956538 -33.72391692 125.81506432 -35.09375 125.859375 C-36.11662109 125.9222168 -36.11662109 125.9222168 -37.16015625 125.98632812 C-40.67524338 126.07164577 -42.40620408 125.95998088 -45.00292969 123.50830078 C-47.23592593 119.91596067 -47.66227913 116.79532329 -47.96875 112.67578125 C-48.0409375 111.89642715 -48.113125 111.11707306 -48.1875 110.31410217 C-48.4230264 107.7262146 -48.63343855 105.13692411 -48.84375 102.546875 C-49.00628466 100.70022296 -49.17037941 98.85370765 -49.3359375 97.00732422 C-49.94401197 90.16114093 -50.52695274 83.31285747 -51.09375 76.46313477 C-51.33831217 73.52050729 -51.59050176 70.5786097 -51.84375 67.63671875 C-51.91464844 66.75531723 -51.98554687 65.87391571 -52.05859375 64.96580505 C-52.80829227 56.3730948 -54.42138562 48.76466296 -58.1015625 40.94921875 C-58.73340794 39.5567926 -59.36490816 38.16420976 -59.99609375 36.77148438 C-60.98270507 34.62104531 -61.97404239 32.47300086 -62.97216797 30.32788086 C-63.9450722 28.22821666 -64.89914967 26.12074035 -65.8515625 24.01171875 C-66.1515213 23.38128159 -66.4514801 22.75084442 -66.76052856 22.1013031 C-68.91265043 17.29925603 -69.25036569 13.70181251 -68.84375 8.546875 C-66.65621717 5.8545269 -65.25951045 5.60750673 -61.84375 5.109375 C-58.01692484 5.66745367 -57.3012078 6.59043803 -54.84375 9.546875 C-53.39093571 12.11090571 -52.20390183 14.770304 -51.0234375 17.46875 C-50.67870392 18.24639709 -50.33397034 19.02404419 -49.97879028 19.82525635 C-49.25274334 21.47388288 -48.53189596 23.12480779 -47.81591797 24.77783203 C-46.73624439 27.25670875 -45.62517459 29.719745 -44.51171875 32.18359375 C-39.99256095 42.41276589 -37.57893495 51.37386054 -36.84375 62.546875 C-36.63698221 64.67228477 -36.42636854 66.79732585 -36.2109375 68.921875 C-36.04400798 70.79662193 -35.87986352 72.6716193 -35.71875 74.546875 C-35.63238281 75.52398438 -35.54601562 76.50109375 -35.45703125 77.5078125 C-35.25001883 79.85395324 -35.04557247 82.20028317 -34.84375 84.546875 C-34.8344043 83.58910156 -34.82505859 82.63132812 -34.81542969 81.64453125 C-34.77526663 78.05830004 -34.70943875 74.47290321 -34.63623047 70.88720703 C-34.60817213 69.34141843 -34.58688294 67.79549039 -34.57275391 66.24951172 C-34.41955219 50.4288815 -34.41955219 50.4288815 -29.84375 43.546875 C-30.565625 43.093125 -31.2875 42.639375 -32.03125 42.171875 C-37.97200459 36.62717072 -40.63617066 29.39842874 -41.046875 21.35546875 C-40.55043371 14.49121324 -37.89537304 7.31785232 -32.84375 2.546875 C-22.88861317 -4.65208758 -11.0361927 -6.37805942 0 0 Z M20.15625 89.546875 C22.94383893 92.55139438 22.94383893 92.55139438 25.90625 94.296875 C36.4423376 101.5910895 42.64786981 112.7174237 47.15625 124.546875 C47.76612429 128.22939839 47.92563886 131.81097459 48.15625 135.546875 C53.76625 135.546875 59.37625 135.546875 65.15625 135.546875 C65.15625 120.366875 65.15625 105.186875 65.15625 89.546875 C50.30625 89.546875 35.45625 89.546875 20.15625 89.546875 Z M-12.84375 125.546875 C-12.84375 128.846875 -12.84375 132.146875 -12.84375 135.546875 C-5.58375 135.546875 1.67625 135.546875 9.15625 135.546875 C6.47307217 126.94040806 6.47307217 126.94040806 3.15625 125.546875 C0.43864892 125.47505679 -2.25234388 125.45387994 -4.96875 125.484375 C-6.09990234 125.49114258 -6.09990234 125.49114258 -7.25390625 125.49804688 C-9.11722127 125.50984001 -10.98049555 125.52777558 -12.84375 125.546875 Z " fill="#FFFFFF" transform="translate(825.84375,489.453125)"/>
<path d="M0 0 C1.1029541 -0.00637985 2.2059082 -0.0127597 3.34228516 -0.01933289 C4.5441748 -0.02044571 5.74606445 -0.02155853 6.984375 -0.02270508 C8.84715088 -0.02769768 8.84715088 -0.02769768 10.74755859 -0.03279114 C13.39066111 -0.03786751 16.03366101 -0.04063063 18.67675781 -0.04003906 C22.66218826 -0.03991937 26.64742762 -0.06026621 30.6328125 -0.0793457 C79.93608708 -0.19198361 79.93608708 -0.19198361 93.734375 13.14526367 C94.28480469 13.65702148 94.83523438 14.1687793 95.40234375 14.69604492 C102.48396881 22.0224669 104.37129743 31.61068387 104.83984375 41.50463867 C104.64041759 48.3885342 103.78902721 55.88566356 100.0625 61.79760742 C98.53106983 63.99435643 98.53106983 63.99435643 98.89453125 66.18823242 C99.83815047 68.38708466 100.96814587 70.38963557 102.171875 72.45776367 C107.44214448 82.87573822 107.85821107 95.01052355 104.734375 106.14526367 C101.09044682 116.18140256 95.79192299 123.06937541 86.21875 127.93041992 C67.72080237 136.33286109 46.77162085 134.30899072 26.87207031 134.27563477 C23.38294927 134.26984678 19.89390365 134.27328842 16.40478516 134.27920723 C13.05630884 134.28366527 9.70785346 134.28055951 6.359375 134.27807617 C5.10543945 134.2801004 3.85150391 134.28212463 2.55957031 134.28421021 C1.41327148 134.28105804 0.26697266 134.27790588 -0.9140625 134.2746582 C-1.92645996 134.27386261 -2.93885742 134.27306702 -3.98193359 134.27224731 C-6.265625 134.14526367 -6.265625 134.14526367 -7.265625 133.14526367 C-7.36184536 131.43700679 -7.38750128 129.72474254 -7.38587952 128.01377869 C-7.38725418 126.90173569 -7.38862885 125.78969269 -7.39004517 124.64395142 C-7.38644989 123.41324921 -7.38285461 122.182547 -7.37915039 120.91455078 C-7.37929642 119.62693344 -7.37944244 118.3393161 -7.3795929 117.01268005 C-7.37988086 113.47151607 -7.37398436 109.93038568 -7.36701894 106.38922954 C-7.36078517 102.69231379 -7.36018158 98.99539736 -7.35899353 95.29847717 C-7.35588028 88.29322468 -7.34766699 81.28798772 -7.33764404 74.28274208 C-7.3264827 66.30947492 -7.3209724 58.33620702 -7.31594861 50.36293399 C-7.30548437 33.95703478 -7.28788505 17.55115121 -7.265625 1.14526367 C-4.70199453 -0.13655156 -2.87059048 0.01126159 0 0 Z " fill="#F1F1F1" transform="translate(236.265625,504.854736328125)"/>
<path d="M0 0 C1.3312793 0.00294571 1.3312793 0.00294571 2.68945312 0.00595093 C3.60573486 0.00445038 4.5220166 0.00294983 5.46606445 0.00140381 C8.45333166 -0.00096033 11.44047912 0.0053098 14.42773438 0.01376343 C15.94193466 0.01708679 15.94193466 0.01708679 17.48672485 0.02047729 C77.06600958 0.17519313 77.06600958 0.17519313 94.47851562 16.68563843 C103.74139619 26.73242426 106.30638411 38.17369758 106.17773438 51.51376343 C106.16943604 52.61921509 106.1611377 53.72466675 106.15258789 54.86361694 C105.8902373 67.49285677 102.76971787 76.32081029 94.74023438 86.13876343 C94.15371094 86.62216187 93.5671875 87.1055603 92.96289062 87.60360718 C91.45949065 89.12084842 91.45949065 89.12084842 92.00024414 91.4805603 C92.76493624 94.22749781 93.69408312 95.90848486 95.35742188 98.20516968 C95.88207031 98.93800171 96.40671875 99.67083374 96.94726562 100.4258728 C97.49769531 101.17675171 98.048125 101.92763062 98.61523438 102.70126343 C99.15792969 103.45600952 99.700625 104.21075562 100.25976562 104.9883728 C103.27119026 109.16712714 103.27119026 109.16712714 106.42651367 113.23690796 C107.74023438 115.13876343 107.74023438 115.13876343 107.64257812 117.50204468 C106.54382513 120.71268655 105.04316808 123.41347937 103.30273438 126.32626343 C102.68527344 127.37169312 102.0678125 128.4171228 101.43164062 129.49423218 C99.74023438 132.13876343 99.74023438 132.13876343 97.74023438 134.13876343 C92.49304846 134.82799249 87.24572992 134.97989934 81.95825195 135.11361694 C80.20272661 135.1715588 78.44791477 135.25993772 76.69555664 135.38021851 C62.62647439 136.33272242 62.62647439 136.33272242 57.87957764 132.72439575 C54.02631731 128.6891646 51.35695124 124.02717173 48.74023438 119.13876343 C46.76023437 115.67376343 46.76023437 115.67376343 44.74023438 112.13876343 C44.41023437 119.39876343 44.08023438 126.65876343 43.74023438 134.13876343 C26.91023438 134.13876343 10.08023437 134.13876343 -7.25976562 134.13876343 C-7.28231224 116.81498688 -7.30074456 99.49122278 -7.3115778 82.16743565 C-7.31674086 74.12426288 -7.32378375 66.08109986 -7.33520508 58.03793335 C-7.34515161 51.03003382 -7.35161898 44.02214135 -7.35385412 37.01423496 C-7.35516128 33.3013315 -7.35824746 29.58844823 -7.36549568 25.87555122 C-7.37350894 21.73744932 -7.37375678 17.59938282 -7.37329102 13.46127319 C-7.37688629 12.22122025 -7.38048157 10.9811673 -7.38418579 9.70353699 C-7.38281113 8.58307983 -7.38143646 7.46262268 -7.38002014 6.30821228 C-7.38094193 5.32834634 -7.38186373 4.3484804 -7.38281345 3.33892155 C-7.12478191 -1.27481446 -3.87168295 0.0147675 0 0 Z M43.74023438 51.13876343 C43.74023438 52.12876343 43.74023438 53.11876343 43.74023438 54.13876343 C47.04023437 54.13876343 50.34023438 54.13876343 53.74023438 54.13876343 C53.74023438 53.14876343 53.74023438 52.15876343 53.74023438 51.13876343 C50.44023438 51.13876343 47.14023437 51.13876343 43.74023438 51.13876343 Z " fill="#F2F2F2" transform="translate(479.259765625,504.8612365722656)"/>
<path d="M0 0 C0.91120605 0.00202423 1.82241211 0.00404846 2.76123047 0.00613403 C3.71562012 0.00438171 4.67000977 0.00262939 5.65332031 0.00082397 C8.82472524 -0.0035963 11.99607492 -0.00065593 15.16748047 0.00271606 C17.36083995 0.00204308 19.55419937 0.00107309 21.74755859 -0.00018311 C26.35108142 -0.00166032 30.95458489 0.00049523 35.55810547 0.00515747 C41.47352642 0.01085477 47.388902 0.00757589 53.30432129 0.00158501 C57.83545273 -0.00201998 62.36657332 -0.00088231 66.89770508 0.0017128 C69.07950852 0.00238224 71.26131293 0.00155305 73.44311523 -0.00076675 C76.48668036 -0.00329225 79.53017093 0.00054587 82.57373047 0.00613403 C83.48493652 0.0041098 84.39614258 0.00208557 85.33496094 0 C91.55321817 0.02126627 91.55321817 0.02126627 92.66748047 1.13552856 C92.76074763 2.70099904 92.78493629 4.27065629 92.78100586 5.83889771 C92.78089256 7.34034081 92.78089256 7.34034081 92.78077698 8.87211609 C92.77561569 9.96064377 92.77045441 11.04917145 92.76513672 12.17068481 C92.76372177 13.27907211 92.76230682 14.38745941 92.760849 15.5294342 C92.7552308 19.08565925 92.74267522 22.6418224 92.72998047 26.19802856 C92.72496781 28.60232453 92.7204045 31.00662148 92.71630859 33.41091919 C92.70525546 39.31914634 92.68797863 45.22732694 92.66748047 51.13552856 C88.70748047 51.13552856 84.74748047 51.13552856 80.66748047 51.13552856 C80.66748047 62.02552856 80.66748047 72.91552856 80.66748047 84.13552856 C84.62748047 84.13552856 88.58748047 84.13552856 92.66748047 84.13552856 C92.66748047 100.63552856 92.66748047 117.13552856 92.66748047 134.13552856 C59.66748047 134.13552856 26.66748047 134.13552856 -7.33251953 134.13552856 C-7.37282257 100.82283173 -7.37282257 100.82283173 -7.38134766 86.90701294 C-7.38729075 77.28290273 -7.39429272 67.65880124 -7.40795898 58.03469849 C-7.41790551 51.02679896 -7.42437288 44.01890649 -7.42660803 37.0110001 C-7.42791519 33.29809664 -7.43100137 29.58521337 -7.43824959 25.87231636 C-7.44626285 21.73421446 -7.44651069 17.59614796 -7.44604492 13.45803833 C-7.4496402 12.21798538 -7.45323547 10.97793243 -7.4569397 9.70030212 C-7.45556503 8.57984497 -7.45419037 7.45938782 -7.45277405 6.30497742 C-7.45369584 5.32511147 -7.45461763 4.34524553 -7.45556736 3.33568668 C-7.19619475 -1.30202828 -3.88144954 0.01327445 0 0 Z " fill="#F3F3F3" transform="translate(364.33251953125,504.8644714355469)"/>
<path d="M0 0 C2.59673375 1.79113288 5.0444577 3.70789789 7.48046875 5.7109375 C6.90336411 9.69451924 5.68254063 12.40086259 3.5390625 15.79296875 C2.66411133 17.18999023 2.66411133 17.18999023 1.77148438 18.61523438 C1.15982422 19.57494141 0.54816406 20.53464844 -0.08203125 21.5234375 C-1.00532227 22.99200195 -1.00532227 22.99200195 -1.94726562 24.49023438 C-3.46460525 26.90151053 -4.98884855 29.30811795 -6.51953125 31.7109375 C-5.23755859 31.69353516 -5.23755859 31.69353516 -3.9296875 31.67578125 C-2.82496094 31.66675781 -1.72023438 31.65773438 -0.58203125 31.6484375 C0.52011719 31.63683594 1.62226562 31.62523437 2.7578125 31.61328125 C5.48046875 31.7109375 5.48046875 31.7109375 6.48046875 32.7109375 C6.61705748 34.94273679 6.6824858 37.17890652 6.72094727 39.41455078 C6.73394363 40.11546341 6.74694 40.81637604 6.7603302 41.53852844 C6.88732139 48.88862013 6.94385075 56.23987759 6.99536133 63.59082031 C7.02207615 67.07747003 7.07075402 70.56274696 7.13891602 74.04882812 C7.2210146 78.25821737 7.26356845 82.46630242 7.27842522 86.67644882 C7.29065266 88.27849598 7.31663964 89.88050149 7.35687447 91.48209 C7.65530649 103.99224508 7.65530649 103.99224508 4.76554871 108.21972656 C2.74793188 110.02598147 0.83817617 111.39055005 -1.51953125 112.7109375 C-2.40019257 113.26248001 -2.40019257 113.26248001 -3.29864502 113.82516479 C-20.96933633 124.30538692 -41.66498825 125.74396508 -61.51953125 121.7109375 C-77.58120674 117.27715597 -90.53705004 107.78906275 -98.89453125 93.2734375 C-108.94963336 73.30525449 -110.46085135 50.89662855 -103.51953125 29.7109375 C-97.75078718 14.55138627 -87.80826315 2.56487149 -73.36328125 -4.92578125 C-70.43450754 -6.18258749 -67.54697552 -7.29245041 -64.51953125 -8.2890625 C-63.81618652 -8.54437744 -63.1128418 -8.79969238 -62.38818359 -9.06274414 C-41.32496087 -16.20213517 -18.46929772 -11.35342111 0 0 Z " fill="#F1F1F1" transform="translate(705.51953125,516.2890625)"/>
<path d="M0 0 C2.7183248 1.90131438 3.92533615 3.10675422 5.8125 5.9375 C7.18285896 15.07322638 2.89180001 22.03905941 -1.1875 29.9375 C-0.57390625 30.68257812 0.0396875 31.42765625 0.671875 32.1953125 C7.12844124 40.46631524 7.88351148 48.59174991 6.8125 58.9375 C5.19337264 66.15171837 1.74363742 71.52284658 -4.1875 75.9375 C-15.6761848 82.84866195 -28.5809812 83.73019303 -41.5625 80.75 C-48.7614305 78.68055268 -55.28358839 75.55328544 -61.1875 70.9375 C-61.55101562 71.76894531 -61.55101562 71.76894531 -61.921875 72.6171875 C-62.25703125 73.34164062 -62.5921875 74.06609375 -62.9375 74.8125 C-63.42476562 75.89144531 -63.42476562 75.89144531 -63.921875 76.9921875 C-65.47835757 79.38455885 -66.54578991 79.89346063 -69.1875 80.9375 C-71.78125 81.19628906 -71.78125 81.19628906 -74.6875 81.203125 C-75.739375 81.20570313 -76.79125 81.20828125 -77.875 81.2109375 C-78.968125 81.20320312 -80.06125 81.19546875 -81.1875 81.1875 C-82.280625 81.19523438 -83.37375 81.20296875 -84.5 81.2109375 C-85.551875 81.20835937 -86.60375 81.20578125 -87.6875 81.203125 C-88.6465625 81.20086914 -89.605625 81.19861328 -90.59375 81.19628906 C-94.87156517 80.76947392 -97.34122358 79.06840406 -100.1875 75.9375 C-100.80625 76.576875 -101.425 77.21625 -102.0625 77.875 C-106.58015629 82.25978405 -111.94820529 81.23535452 -117.9375 81.3125 C-119.56558594 81.36857422 -119.56558594 81.36857422 -121.2265625 81.42578125 C-130.22106276 81.52474274 -130.22106276 81.52474274 -133.890625 78.6640625 C-137.53883086 74.33336915 -137.31509907 70.79819666 -137.33276367 65.22875977 C-137.33612228 64.56321075 -137.3394809 63.89766174 -137.34294128 63.21194458 C-137.35241984 61.01757935 -137.35439275 58.82329066 -137.35546875 56.62890625 C-137.35868317 55.09960397 -137.36204738 53.570302 -137.36555481 52.04100037 C-137.3715381 48.8374663 -137.3733955 45.63395918 -137.37280273 42.43041992 C-137.37270109 38.33032751 -137.38635959 34.23040817 -137.40357494 30.13035679 C-137.41470535 26.97246002 -137.41672163 23.81460498 -137.41619301 20.6566906 C-137.41737131 19.14525696 -137.42178469 17.63382219 -137.42952538 16.12240791 C-137.43934764 14.00669419 -137.43643874 11.89135481 -137.43041992 9.77563477 C-137.43184494 8.57302505 -137.43326996 7.37041534 -137.43473816 6.13136292 C-137.10012178 1.80873393 -136.06225205 -0.98431724 -133.33984375 -4.33984375 C-128.32852354 -7.0783719 -123.36515168 -6.67976625 -117.75 -6.625 C-116.63044922 -6.64884766 -115.51089844 -6.67269531 -114.35742188 -6.69726562 C-105.19759683 -6.68095733 -105.19759683 -6.68095733 -101.40234375 -3.52734375 C-100.67144531 -2.71394531 -99.94054687 -1.90054688 -99.1875 -1.0625 C-98.45660156 -1.87460937 -97.72570312 -2.68671875 -96.97265625 -3.5234375 C-92.19906827 -7.48858396 -86.53700028 -6.78960709 -80.625 -6.6875 C-79.50158203 -6.70683594 -78.37816406 -6.72617187 -77.22070312 -6.74609375 C-68.09108794 -6.69184767 -68.09108794 -6.69184767 -64.97265625 -3.6484375 C-62.414607 0.05709554 -62.05113999 1.9242779 -61.98217773 6.39697266 C-61.9522599 8.10852036 -61.9522599 8.10852036 -61.92173767 9.85464478 C-61.90502518 11.09112762 -61.88831268 12.32761047 -61.87109375 13.6015625 C-61.85031265 14.86390717 -61.82953156 16.12625183 -61.80812073 17.42684937 C-61.75372074 20.78382045 -61.70349764 24.14080189 -61.65527344 27.49786377 C-61.60504958 30.92311065 -61.54936814 34.34826829 -61.49414062 37.7734375 C-61.38688141 44.49472061 -61.2851256 51.21607044 -61.1875 57.9375 C-59.9563594 55.71844414 -58.75329376 53.49057248 -57.5625 51.25 C-57.211875 50.62416016 -56.86125 49.99832031 -56.5 49.35351562 C-54.8717907 46.24363586 -54.02672832 44.56763611 -54.91186523 41.09838867 C-55.33282471 40.38529541 -55.75378418 39.67220215 -56.1875 38.9375 C-56.52910156 38.31488281 -56.87070312 37.69226563 -57.22265625 37.05078125 C-57.56167969 36.45652344 -57.90070313 35.86226562 -58.25 35.25 C-61.62594659 28.5233948 -61.89883119 21.38402949 -59.97265625 14.1640625 C-57.03037331 5.82027506 -52.66041833 -0.33876855 -44.66796875 -4.31640625 C-30.12532589 -10.02603484 -13.15048249 -8.38369392 0 0 Z " fill="#020202" transform="translate(981.1875,697.0625)"/>
<path d="M0 0 C1.14146484 -0.02900391 2.28292969 -0.05800781 3.45898438 -0.08789062 C11.89547241 -0.15199018 11.89547241 -0.15199018 15.91796875 2.20703125 C18.42503064 5.19004749 18.81191402 6.76759176 18.80102539 10.57861328 C18.80094986 11.45937531 18.80087433 12.34013733 18.80079651 13.24758911 C18.79563522 14.19971283 18.79047394 15.15183655 18.78515625 16.1328125 C18.7837413 17.10660858 18.78232635 18.08040466 18.78086853 19.08370972 C18.77525973 22.20167073 18.76270573 25.3195606 18.75 28.4375 C18.74498613 30.54817605 18.74042303 32.65885322 18.73632812 34.76953125 C18.72528745 39.95054521 18.70854073 45.13151752 18.6875 50.3125 C19.42355469 50.28929687 20.15960937 50.26609375 20.91796875 50.2421875 C21.89378906 50.22414063 22.86960937 50.20609375 23.875 50.1875 C24.83792969 50.16429687 25.80085937 50.14109375 26.79296875 50.1171875 C29.81562778 50.3211456 31.95519985 51.04375368 34.6875 52.3125 C34.70208252 51.01103027 34.71666504 49.70956055 34.73168945 48.36865234 C34.78978934 43.52658008 34.86702191 38.68496715 34.94995117 33.84326172 C34.98314549 31.75023876 35.01119445 29.65712747 35.03393555 27.56396484 C35.06758231 24.55007388 35.11990393 21.53698837 35.17578125 18.5234375 C35.18217117 17.59195892 35.1885611 16.66048035 35.19514465 15.70077515 C35.31088605 10.55250589 35.66575538 6.68645064 38.6875 2.3125 C43.18837561 -0.97571062 49.17067668 -0.09636483 54.5 -0.125 C55.56798828 -0.15787109 56.63597656 -0.19074219 57.73632812 -0.22460938 C64.76715219 -0.27243811 68.43150641 0.56636029 73.6875 5.3125 C74.30625 4.673125 74.925 4.03375 75.5625 3.375 C80.11811914 -1.04663034 85.53428728 0.1285007 91.5625 0.125 C92.66464844 0.11275391 93.76679687 0.10050781 94.90234375 0.08789062 C96.49369141 0.08499023 96.49369141 0.08499023 98.1171875 0.08203125 C99.08897949 0.07792236 100.06077148 0.07381348 101.06201172 0.06958008 C103.9165959 0.3336968 105.38273759 0.6076366 107.6875 2.3125 C111.2455827 7.46128454 111.11132097 12.30096339 111.05078125 18.3203125 C111.05152901 19.76312088 111.05152901 19.76312088 111.05229187 21.2350769 C111.04995698 23.26741605 111.04026308 25.2997584 111.02368164 27.33203125 C111.00023624 30.40652058 111.00310754 33.48013227 111.00976562 36.5546875 C110.96846325 67.4466634 110.96846325 67.4466634 101.0546875 79.2578125 C91.74072145 87.87864619 80.34496889 88.79587096 68.28125 88.58203125 C58.56576992 88.17721958 51.59057532 85.02618135 44.52734375 78.41015625 C42.57389604 76.18297702 41.12917511 73.89493985 39.6875 71.3125 C39.67332031 71.97636719 39.65914062 72.64023437 39.64453125 73.32421875 C39.25131014 80.60412316 39.25131014 80.60412316 36.25 84.375 C33.01766802 86.81895832 31.46429761 87.43830596 27.50073242 87.48950195 C26.20379707 87.50875481 26.20379707 87.50875481 24.88066101 87.52839661 C23.47600334 87.53947701 23.47600334 87.53947701 22.04296875 87.55078125 C21.08103104 87.558853 20.11909332 87.56692474 19.12800598 87.57524109 C17.08950607 87.5890861 15.05098294 87.59980638 13.01245117 87.60766602 C9.89782664 87.62487389 6.78426482 87.66875577 3.66992188 87.71289062 C1.69011198 87.72301791 -0.28970695 87.7315339 -2.26953125 87.73828125 C-3.66507988 87.76454338 -3.66507988 87.76454338 -5.08882141 87.79133606 C-9.35960723 87.77704163 -11.67763035 87.70636696 -15.37768555 85.41088867 C-18.76625972 81.73583567 -18.45250209 79.21441075 -18.48950195 74.2800293 C-18.49607315 73.55625092 -18.50264435 72.83247253 -18.50941467 72.08676147 C-18.5291573 69.68674622 -18.5408125 67.28679357 -18.55078125 64.88671875 C-18.55485678 64.06735147 -18.5589323 63.2479842 -18.56313133 62.40378761 C-18.58399643 58.06680172 -18.59829609 53.72984751 -18.60766602 49.39282227 C-18.61873003 44.91362058 -18.65312821 40.43491575 -18.69283772 35.9558897 C-18.7189866 32.51147032 -18.7273563 29.0671696 -18.73094749 25.62265968 C-18.73581814 23.97164365 -18.74744582 22.32063309 -18.76598549 20.66971397 C-18.79034073 18.35712739 -18.78941918 16.04582994 -18.7824707 13.7331543 C-18.78833694 12.41792282 -18.79420319 11.10269135 -18.80024719 9.74760437 C-18.23426928 5.76153697 -17.12766947 4.13181005 -14.3125 1.3125 C-10.1053881 -0.79105595 -4.62244707 0.03875724 0 0 Z " fill="#020201" transform="translate(540.3125,690.6875)"/>
<path d="M0 0 C0.91120605 0.00202423 1.82241211 0.00404846 2.76123047 0.00613403 C3.71562012 0.00438171 4.67000977 0.00262939 5.65332031 0.00082397 C8.82472524 -0.0035963 11.99607492 -0.00065593 15.16748047 0.00271606 C17.36083995 0.00204308 19.55419937 0.00107309 21.74755859 -0.00018311 C26.35108142 -0.00166032 30.95458489 0.00049523 35.55810547 0.00515747 C41.47352642 0.01085477 47.388902 0.00757589 53.30432129 0.00158501 C57.83545273 -0.00201998 62.36657332 -0.00088231 66.89770508 0.0017128 C69.07950852 0.00238224 71.26131293 0.00155305 73.44311523 -0.00076675 C76.48668036 -0.00329225 79.53017093 0.00054587 82.57373047 0.00613403 C83.48493652 0.0041098 84.39614258 0.00208557 85.33496094 0 C91.55321817 0.02126627 91.55321817 0.02126627 92.66748047 1.13552856 C92.76074763 2.70099904 92.78493629 4.27065629 92.78100586 5.83889771 C92.78089256 7.34034081 92.78089256 7.34034081 92.78077698 8.87211609 C92.77561569 9.96064377 92.77045441 11.04917145 92.76513672 12.17068481 C92.76372177 13.27907211 92.76230682 14.38745941 92.760849 15.5294342 C92.7552308 19.08565925 92.74267522 22.6418224 92.72998047 26.19802856 C92.72496781 28.60232453 92.7204045 31.00662148 92.71630859 33.41091919 C92.70525546 39.31914634 92.68797863 45.22732694 92.66748047 51.13552856 C88.70748047 51.13552856 84.74748047 51.13552856 80.66748047 51.13552856 C80.66748047 62.02552856 80.66748047 72.91552856 80.66748047 84.13552856 C84.62748047 84.13552856 88.58748047 84.13552856 92.66748047 84.13552856 C92.66748047 100.63552856 92.66748047 117.13552856 92.66748047 134.13552856 C59.66748047 134.13552856 26.66748047 134.13552856 -7.33251953 134.13552856 C-7.37282257 100.82283173 -7.37282257 100.82283173 -7.38134766 86.90701294 C-7.38729075 77.28290273 -7.39429272 67.65880124 -7.40795898 58.03469849 C-7.41790551 51.02679896 -7.42437288 44.01890649 -7.42660803 37.0110001 C-7.42791519 33.29809664 -7.43100137 29.58521337 -7.43824959 25.87231636 C-7.44626285 21.73421446 -7.44651069 17.59614796 -7.44604492 13.45803833 C-7.4496402 12.21798538 -7.45323547 10.97793243 -7.4569397 9.70030212 C-7.45556503 8.57984497 -7.45419037 7.45938782 -7.45277405 6.30497742 C-7.45369584 5.32511147 -7.45461763 4.34524553 -7.45556736 3.33568668 C-7.19619475 -1.30202828 -3.88144954 0.01327445 0 0 Z M3.66748047 12.13552856 C3.66748047 48.43552856 3.66748047 84.73552856 3.66748047 122.13552856 C29.40748047 122.13552856 55.14748047 122.13552856 81.66748047 122.13552856 C81.66748047 113.22552856 81.66748047 104.31552856 81.66748047 95.13552856 C65.49748047 95.13552856 49.32748047 95.13552856 32.66748047 95.13552856 C32.66748047 90.18552856 32.66748047 85.23552856 32.66748047 80.13552856 C44.87748047 80.13552856 57.08748047 80.13552856 69.66748047 80.13552856 C69.66748047 71.55552856 69.66748047 62.97552856 69.66748047 54.13552856 C57.45748047 54.13552856 45.24748047 54.13552856 32.66748047 54.13552856 C32.66748047 49.18552856 32.66748047 44.23552856 32.66748047 39.13552856 C48.83748047 39.13552856 65.00748047 39.13552856 81.66748047 39.13552856 C81.66748047 30.22552856 81.66748047 21.31552856 81.66748047 12.13552856 C55.92748047 12.13552856 30.18748047 12.13552856 3.66748047 12.13552856 Z " fill="#040404" transform="translate(364.33251953125,504.8644714355469)"/>
<path d="M0 0 C2.59673375 1.79113288 5.0444577 3.70789789 7.48046875 5.7109375 C6.90336411 9.69451924 5.68254063 12.40086259 3.5390625 15.79296875 C2.66411133 17.18999023 2.66411133 17.18999023 1.77148438 18.61523438 C1.15982422 19.57494141 0.54816406 20.53464844 -0.08203125 21.5234375 C-1.00532227 22.99200195 -1.00532227 22.99200195 -1.94726562 24.49023438 C-3.46460525 26.90151053 -4.98884855 29.30811795 -6.51953125 31.7109375 C-5.23755859 31.69353516 -5.23755859 31.69353516 -3.9296875 31.67578125 C-2.82496094 31.66675781 -1.72023438 31.65773438 -0.58203125 31.6484375 C0.52011719 31.63683594 1.62226562 31.62523437 2.7578125 31.61328125 C5.48046875 31.7109375 5.48046875 31.7109375 6.48046875 32.7109375 C6.61705748 34.94273679 6.6824858 37.17890652 6.72094727 39.41455078 C6.73394363 40.11546341 6.74694 40.81637604 6.7603302 41.53852844 C6.88732139 48.88862013 6.94385075 56.23987759 6.99536133 63.59082031 C7.02207615 67.07747003 7.07075402 70.56274696 7.13891602 74.04882812 C7.2210146 78.25821737 7.26356845 82.46630242 7.27842522 86.67644882 C7.29065266 88.27849598 7.31663964 89.88050149 7.35687447 91.48209 C7.65530649 103.99224508 7.65530649 103.99224508 4.76554871 108.21972656 C2.74793188 110.02598147 0.83817617 111.39055005 -1.51953125 112.7109375 C-2.40019257 113.26248001 -2.40019257 113.26248001 -3.29864502 113.82516479 C-20.96933633 124.30538692 -41.66498825 125.74396508 -61.51953125 121.7109375 C-77.58120674 117.27715597 -90.53705004 107.78906275 -98.89453125 93.2734375 C-108.94963336 73.30525449 -110.46085135 50.89662855 -103.51953125 29.7109375 C-97.75078718 14.55138627 -87.80826315 2.56487149 -73.36328125 -4.92578125 C-70.43450754 -6.18258749 -67.54697552 -7.29245041 -64.51953125 -8.2890625 C-63.81618652 -8.54437744 -63.1128418 -8.79969238 -62.38818359 -9.06274414 C-41.32496087 -16.20213517 -18.46929772 -11.35342111 0 0 Z M-82.51953125 15.7109375 C-92.64713182 27.86828682 -95.69847138 40.08999039 -95.70703125 55.5234375 C-95.71927734 56.67392578 -95.73152344 57.82441406 -95.74414062 59.00976562 C-95.77112876 74.70786556 -90.76542072 87.91714347 -79.9375 99.38671875 C-70.07213861 108.67600065 -57.52057715 112.10284034 -44.33203125 111.9609375 C-43.40656494 111.95271973 -42.48109863 111.94450195 -41.52758789 111.93603516 C-29.13900016 111.73491119 -19.30155489 110.18015168 -8.51953125 103.7109375 C-7.46442352 103.09335823 -7.46442352 103.09335823 -6.38800049 102.46330261 C-4.28699307 100.8373038 -4.28699307 100.8373038 -4.03851318 98.18623352 C-4.04739563 97.18029648 -4.05627808 96.17435944 -4.06542969 95.13793945 C-4.06588287 93.42650505 -4.06588287 93.42650505 -4.06634521 91.68049622 C-4.08699036 90.44917465 -4.1076355 89.21785309 -4.12890625 87.94921875 C-4.13739594 86.05782417 -4.13739594 86.05782417 -4.14605713 84.1282196 C-4.16467069 80.77898482 -4.20059559 77.43084033 -4.24487305 74.08190918 C-4.28582266 70.66342761 -4.30428663 67.24482997 -4.32421875 63.82617188 C-4.36497045 57.12047937 -4.44325721 50.41669726 -4.51953125 43.7109375 C-18.04953125 43.7109375 -31.57953125 43.7109375 -45.51953125 43.7109375 C-45.51953125 51.9609375 -45.51953125 60.2109375 -45.51953125 68.7109375 C-41.55953125 68.7109375 -37.59953125 68.7109375 -33.51953125 68.7109375 C-33.84953125 73.3309375 -34.17953125 77.9509375 -34.51953125 82.7109375 C-51.68152991 83.32386602 -51.68152991 83.32386602 -57.51953125 78.7109375 C-62.38890627 73.97316721 -64.60768566 67.74902787 -64.91796875 61.0546875 C-64.92581924 59.44010435 -64.91785373 57.82537128 -64.89453125 56.2109375 C-64.90613281 55.40785156 -64.91773438 54.60476563 -64.9296875 53.77734375 C-64.89703666 47.06215445 -63.36119017 41.87859084 -59.95703125 36.0234375 C-54.01842399 30.3893742 -48.11840821 28.3778738 -39.95703125 28.1484375 C-34.37289861 28.31765364 -30.17643848 29.10718711 -25.3515625 31.93359375 C-22.91651414 32.9668019 -21.96493213 32.67959836 -19.51953125 31.7109375 C-17.87018786 29.79181331 -17.87018786 29.79181331 -16.50390625 27.34375 C-15.97539063 26.45816406 -15.446875 25.57257812 -14.90234375 24.66015625 C-14.36351562 23.72816406 -13.8246875 22.79617188 -13.26953125 21.8359375 C-12.71523438 20.91167969 -12.1609375 19.98742187 -11.58984375 19.03515625 C-8.49565929 14.19349221 -8.49565929 14.19349221 -7.51953125 8.7109375 C-9.68122735 7.57543983 -11.84815015 6.45264778 -14.01953125 5.3359375 C-14.62023437 5.01882813 -15.2209375 4.70171875 -15.83984375 4.375 C-23.69855843 0.36203931 -30.9304146 -0.65758686 -39.70703125 -0.6015625 C-40.63177246 -0.59592285 -41.55651367 -0.5902832 -42.50927734 -0.58447266 C-58.00093682 -0.31117002 -71.71520959 4.17256427 -82.51953125 15.7109375 Z " fill="#030303" transform="translate(705.51953125,516.2890625)"/>
<path d="M0 0 C0.81726563 0.4021875 1.63453125 0.804375 2.4765625 1.21875 C12.7849239 6.82450544 18.5355374 14.08640791 22.09375 25.25390625 C25.72300446 40.25586756 24.27453124 54.29275131 16.98046875 67.828125 C11.12500044 77.20611369 3.54624339 81.66998116 -6.6875 85.3125 C-18.57516685 87.78110824 -31.29020204 86.59560187 -41.78515625 80.33984375 C-51.12143613 73.48197301 -56.57459754 64.22972442 -59 53 C-59.38632319 49.32013041 -59.4216042 45.69726659 -59.375 42 C-59.39240234 40.61941406 -59.39240234 40.61941406 -59.41015625 39.2109375 C-59.35828233 26.93411008 -55.10993515 16.38876949 -46.875 7.25 C-35.26811339 -3.68327266 -14.4510771 -7.30859072 0 0 Z M-19 34 C-21.20914 37.31371 -21.22481553 38.3446021 -21.125 42.1875 C-21.10695313 43.08855469 -21.08890625 43.98960937 -21.0703125 44.91796875 C-21.04710937 45.60503906 -21.02390625 46.29210937 -21 47 C-19.02 47.99 -19.02 47.99 -17 49 C-14.33751917 46.33751917 -14.28167295 44.73216655 -14 41 C-14.85296678 37.21940955 -14.85296678 37.21940955 -16 34 C-16.99 34 -17.98 34 -19 34 Z " fill="#F9F5E7" transform="translate(497,693)"/>
<path d="M0 0 C9.08088822 6.86653293 14.75751435 16.17144613 16.74609375 27.3203125 C18.14197672 43.2919261 16.12799531 56.01677609 6.74609375 69.3203125 C-0.60271704 77.50688772 -9.99426671 81.80621785 -20.89453125 82.578125 C-32.17795828 83.01734931 -42.47474888 81.4529971 -51.4453125 74.01171875 C-61.2423477 64.84948064 -65.63638124 55.15737761 -66.4765625 41.7734375 C-66.77778014 28.93894676 -64.64386761 18.89364183 -57.25390625 8.3203125 C-56.51140625 7.2478125 -55.76890625 6.1753125 -55.00390625 5.0703125 C-40.57669007 -9.35690368 -16.85189646 -11.32501694 0 0 Z M-26.25390625 30.3203125 C-28.5887737 33.96854289 -28.55789908 37.06441293 -28.25390625 41.3203125 C-27.37325698 43.67401057 -27.37325698 43.67401057 -26.25390625 45.3203125 C-24.2785388 44.97244542 -24.2785388 44.97244542 -22.25390625 44.3203125 C-21.0840728 41.9806456 -21.08778215 40.48639723 -21.06640625 37.8828125 C-21.05222656 37.10035156 -21.03804687 36.31789063 -21.0234375 35.51171875 C-21.11304561 33.02825263 -21.11304561 33.02825263 -23.25390625 30.3203125 C-24.24390625 30.3203125 -25.23390625 30.3203125 -26.25390625 30.3203125 Z " fill="#F9F5E7" transform="translate(826.25390625,696.6796875)"/>
<path d="M0 0 C1.3312793 0.00294571 1.3312793 0.00294571 2.68945312 0.00595093 C3.60573486 0.00445038 4.5220166 0.00294983 5.46606445 0.00140381 C8.45333166 -0.00096033 11.44047912 0.0053098 14.42773438 0.01376343 C15.94193466 0.01708679 15.94193466 0.01708679 17.48672485 0.02047729 C77.06600958 0.17519313 77.06600958 0.17519313 94.47851562 16.68563843 C103.74139619 26.73242426 106.30638411 38.17369758 106.17773438 51.51376343 C106.16943604 52.61921509 106.1611377 53.72466675 106.15258789 54.86361694 C105.8902373 67.49285677 102.76971787 76.32081029 94.74023438 86.13876343 C94.15371094 86.62216187 93.5671875 87.1055603 92.96289062 87.60360718 C91.45949065 89.12084842 91.45949065 89.12084842 92.00024414 91.4805603 C92.76493624 94.22749781 93.69408312 95.90848486 95.35742188 98.20516968 C95.88207031 98.93800171 96.40671875 99.67083374 96.94726562 100.4258728 C97.49769531 101.17675171 98.048125 101.92763062 98.61523438 102.70126343 C99.15792969 103.45600952 99.700625 104.21075562 100.25976562 104.9883728 C103.27119026 109.16712714 103.27119026 109.16712714 106.42651367 113.23690796 C107.74023438 115.13876343 107.74023438 115.13876343 107.64257812 117.50204468 C106.54382513 120.71268655 105.04316808 123.41347937 103.30273438 126.32626343 C102.68527344 127.37169312 102.0678125 128.4171228 101.43164062 129.49423218 C99.74023438 132.13876343 99.74023438 132.13876343 97.74023438 134.13876343 C92.49304846 134.82799249 87.24572992 134.97989934 81.95825195 135.11361694 C80.20272661 135.1715588 78.44791477 135.25993772 76.69555664 135.38021851 C62.62647439 136.33272242 62.62647439 136.33272242 57.87957764 132.72439575 C54.02631731 128.6891646 51.35695124 124.02717173 48.74023438 119.13876343 C46.76023437 115.67376343 46.76023437 115.67376343 44.74023438 112.13876343 C44.41023437 119.39876343 44.08023438 126.65876343 43.74023438 134.13876343 C26.91023438 134.13876343 10.08023437 134.13876343 -7.25976562 134.13876343 C-7.28231224 116.81498688 -7.30074456 99.49122278 -7.3115778 82.16743565 C-7.31674086 74.12426288 -7.32378375 66.08109986 -7.33520508 58.03793335 C-7.34515161 51.03003382 -7.35161898 44.02214135 -7.35385412 37.01423496 C-7.35516128 33.3013315 -7.35824746 29.58844823 -7.36549568 25.87555122 C-7.37350894 21.73744932 -7.37375678 17.59938282 -7.37329102 13.46127319 C-7.37688629 12.22122025 -7.38048157 10.9811673 -7.38418579 9.70353699 C-7.38281113 8.58307983 -7.38143646 7.46262268 -7.38002014 6.30821228 C-7.38094193 5.32834634 -7.38186373 4.3484804 -7.38281345 3.33892155 C-7.12478191 -1.27481446 -3.87168295 0.0147675 0 0 Z M3.74023438 12.13876343 C3.74023438 48.76876343 3.74023438 85.39876343 3.74023438 123.13876343 C13.31023437 123.13876343 22.88023437 123.13876343 32.74023438 123.13876343 C32.74023438 112.57876343 32.74023438 102.01876343 32.74023438 91.13876343 C44.74023438 92.13876343 44.74023438 92.13876343 47.74804688 94.99032593 C48.49106965 96.22647442 49.19563061 97.48635326 49.86523438 98.76376343 C50.27894287 99.42513306 50.69265137 100.08650269 51.11889648 100.76791382 C53.2659556 104.23617716 54.98397042 107.65625273 56.42382812 111.47079468 C58.39987615 116.07565386 60.14170459 119.76459931 64.74023438 122.13876343 C75.57938538 124.04315306 86.83120456 123.0433649 97.74023438 122.13876343 C94.49027382 116.17374855 90.72631854 110.67891388 86.80273438 105.13876343 C86.19494141 104.27509155 85.58714844 103.41141968 84.9609375 102.52157593 C81.6057661 97.75000994 81.6057661 97.75000994 78.18505859 93.02548218 C74.74023438 88.3369296 74.74023438 88.3369296 74.74023438 86.13876343 C76.24645851 85.20407098 77.79767061 84.34147409 79.36523438 83.51376343 C86.45223315 79.40390558 90.62132458 73.6898082 93.74023438 66.13876343 C96.10117331 54.82593102 96.43094273 40.23155597 90.61523438 29.95126343 C82.21035071 17.86772053 70.75800739 14.68744943 56.74023438 12.13876343 C39.25023437 12.13876343 21.76023437 12.13876343 3.74023438 12.13876343 Z " fill="#030303" transform="translate(479.259765625,504.8612365722656)"/>
<path d="M0 0 C2.55701065 2.03770606 4.1606992 3.80276952 5.1875 6.9375 C4.83726203 13.43213023 2.27338976 18.25065164 -0.6328125 23.94921875 C-1.98677254 26.74014521 -1.98677254 26.74014521 -1.64453125 29.1015625 C-0.73026858 31.11894961 0.34701353 32.81609928 1.625 34.625 C6.55523911 42.3704771 6.76899582 50.04158599 5.1875 58.9375 C3.74708733 64.98511495 0.99470774 69.93461106 -3.8125 73.9375 C-16.1393842 81.35367423 -29.17220806 82.96751838 -43.1875 79.75 C-51.3546189 77.37209055 -59.28556386 74.48239356 -63.8125 66.9375 C-64.51690246 60.77208489 -62.73770856 56.93335228 -59.875 51.6875 C-57.0437719 46.44735556 -57.0437719 46.44735556 -54.8125 40.9375 C-55.99520048 39.4990805 -57.1865036 38.06208658 -58.48828125 36.73046875 C-63.25672556 30.27407956 -62.5678069 21.5220401 -61.8125 13.9375 C-59.53224696 6.24164598 -54.56270449 -0.38540881 -47.5390625 -4.34375 C-32.48403587 -11.34608797 -13.58164933 -9.61727601 0 0 Z " fill="#030303" transform="translate(430.8125,698.0625)"/>
<path d="M0 0 C1.1029541 -0.00637985 2.2059082 -0.0127597 3.34228516 -0.01933289 C4.5441748 -0.02044571 5.74606445 -0.02155853 6.984375 -0.02270508 C8.84715088 -0.02769768 8.84715088 -0.02769768 10.74755859 -0.03279114 C13.39066111 -0.03786751 16.03366101 -0.04063063 18.67675781 -0.04003906 C22.66218826 -0.03991937 26.64742762 -0.06026621 30.6328125 -0.0793457 C79.93608708 -0.19198361 79.93608708 -0.19198361 93.734375 13.14526367 C94.28480469 13.65702148 94.83523438 14.1687793 95.40234375 14.69604492 C102.48396881 22.0224669 104.37129743 31.61068387 104.83984375 41.50463867 C104.64041759 48.3885342 103.78902721 55.88566356 100.0625 61.79760742 C98.53106983 63.99435643 98.53106983 63.99435643 98.89453125 66.18823242 C99.83815047 68.38708466 100.96814587 70.38963557 102.171875 72.45776367 C107.44214448 82.87573822 107.85821107 95.01052355 104.734375 106.14526367 C101.09044682 116.18140256 95.79192299 123.06937541 86.21875 127.93041992 C67.72080237 136.33286109 46.77162085 134.30899072 26.87207031 134.27563477 C23.38294927 134.26984678 19.89390365 134.27328842 16.40478516 134.27920723 C13.05630884 134.28366527 9.70785346 134.28055951 6.359375 134.27807617 C5.10543945 134.2801004 3.85150391 134.28212463 2.55957031 134.28421021 C1.41327148 134.28105804 0.26697266 134.27790588 -0.9140625 134.2746582 C-1.92645996 134.27386261 -2.93885742 134.27306702 -3.98193359 134.27224731 C-6.265625 134.14526367 -6.265625 134.14526367 -7.265625 133.14526367 C-7.36184536 131.43700679 -7.38750128 129.72474254 -7.38587952 128.01377869 C-7.38725418 126.90173569 -7.38862885 125.78969269 -7.39004517 124.64395142 C-7.38644989 123.41324921 -7.38285461 122.182547 -7.37915039 120.91455078 C-7.37929642 119.62693344 -7.37944244 118.3393161 -7.3795929 117.01268005 C-7.37988086 113.47151607 -7.37398436 109.93038568 -7.36701894 106.38922954 C-7.36078517 102.69231379 -7.36018158 98.99539736 -7.35899353 95.29847717 C-7.35588028 88.29322468 -7.34766699 81.28798772 -7.33764404 74.28274208 C-7.3264827 66.30947492 -7.3209724 58.33620702 -7.31594861 50.36293399 C-7.30548437 33.95703478 -7.28788505 17.55115121 -7.265625 1.14526367 C-4.70199453 -0.13655156 -2.87059048 0.01126159 0 0 Z M3.734375 12.14526367 C3.734375 48.44526367 3.734375 84.74526367 3.734375 122.14526367 C18.77 122.20713867 18.77 122.20713867 34.109375 122.27026367 C37.2551709 122.28847168 40.4009668 122.30667969 43.64208984 122.32543945 C46.159829 122.33128547 48.67757005 122.33638077 51.1953125 122.34057617 C52.48284424 122.35080811 53.77037598 122.36104004 55.09692383 122.37158203 C66.50478907 122.37377459 78.28451646 121.57509268 87.33203125 113.76635742 C93.16982232 107.21446347 95.45431804 100.332528 95.296875 91.70776367 C95.28736816 90.87100098 95.27786133 90.03423828 95.26806641 89.17211914 C95.01862301 81.7911901 93.37613954 76.87807232 88.171875 71.54370117 C85.79475171 69.41617583 83.76871502 68.15671035 80.734375 67.14526367 C80.404375 66.48526367 80.074375 65.82526367 79.734375 65.14526367 C80.45625 64.93901367 81.178125 64.73276367 81.921875 64.52026367 C87.23884815 61.92085457 89.91514757 57.48849994 92.11914062 52.14550781 C93.23199813 48.5273961 93.20676076 44.96591106 93.171875 41.20776367 C93.19185547 40.44786133 93.21183594 39.68795898 93.23242188 38.9050293 C93.22667385 32.17408949 91.19902288 27.19725526 86.98046875 21.97338867 C78.90751485 14.92916972 69.18935915 12.00974611 58.56713867 12.03173828 C57.32927612 12.03185913 56.09141357 12.03197998 54.81604004 12.03210449 C52.87876038 12.03977844 52.87876038 12.03977844 50.90234375 12.04760742 C49.11117126 12.04911804 49.11117126 12.04911804 47.28381348 12.05065918 C42.82982419 12.05588504 38.37584862 12.06984631 33.921875 12.08276367 C23.96 12.10338867 13.998125 12.12401367 3.734375 12.14526367 Z " fill="#030303" transform="translate(236.265625,504.854736328125)"/>
<path d="M0 0 C1.17728165 -0.00619858 2.35456329 -0.01239716 3.56752014 -0.01878357 C6.05468927 -0.02588056 8.54190591 -0.02270995 11.02905273 -0.01000977 C14.83080686 0.00384485 18.63009472 -0.03020854 22.43164062 -0.06835938 C24.85026102 -0.06931068 27.26888449 -0.06745112 29.6875 -0.0625 C30.8220311 -0.07575821 31.95656219 -0.08901642 33.12547302 -0.10267639 C41.92287666 0.00089885 41.92287666 0.00089885 45.61157227 2.85571289 C48.69391226 6.4906806 48.69391226 6.4906806 48.91015625 9.56640625 C48.98991699 10.60740479 48.98991699 10.60740479 49.07128906 11.66943359 C49.11687735 14.09356443 49.14537258 16.51688378 49.16015625 18.94140625 C49.18078125 19.77929688 49.20140625 20.6171875 49.22265625 21.48046875 C49.25490081 26.6073534 48.77434906 30.13241545 45.91015625 34.56640625 C41.95936821 37.85872962 38.91158899 37.67207032 33.91015625 37.56640625 C33.9258667 38.81252686 33.94157715 40.05864746 33.95776367 41.3425293 C34.01213698 45.97364823 34.04653336 50.60473903 34.07495117 55.23608398 C34.0900209 57.23906197 34.11048035 59.24200705 34.13647461 61.24487305 C34.17293752 64.12687306 34.18990086 67.00843609 34.203125 69.890625 C34.21860886 70.7835173 34.23409271 71.67640961 34.25004578 72.59635925 C34.25134278 77.40730273 34.11504504 80.71177404 30.91015625 84.56640625 C27.82729106 87.55905517 25.65059072 87.94286761 21.41015625 87.9296875 C20.35828125 87.92904297 19.30640625 87.92839844 18.22265625 87.92773438 C17.12953125 87.91162109 16.03640625 87.89550781 14.91015625 87.87890625 C13.81703125 87.88212891 12.72390625 87.88535156 11.59765625 87.88867188 C1.97912981 87.82384112 1.97912981 87.82384112 -1.08984375 85.56640625 C-4.61138554 80.45364192 -4.48687341 75.75905992 -4.3828125 69.79296875 C-4.37856766 68.86922455 -4.37432281 67.94548035 -4.36994934 66.9937439 C-4.35323048 64.05932795 -4.31559091 61.12561269 -4.27734375 58.19140625 C-4.26228813 56.19532246 -4.24860126 54.19922784 -4.23632812 52.203125 C-4.2033492 47.32395103 -4.15161389 42.44529722 -4.08984375 37.56640625 C-5.188125 37.58960938 -6.28640625 37.6128125 -7.41796875 37.63671875 C-11.47563124 37.55901883 -13.00149659 37.14002888 -16.08984375 34.56640625 C-19.43346475 29.36969409 -19.51774803 24.97261585 -19.40234375 19.00390625 C-19.40556641 18.16666016 -19.40878906 17.32941406 -19.41210938 16.46679688 C-19.36336822 10.87042612 -19.06295849 6.83617441 -15.26464844 2.46679688 C-10.36211634 -0.46778555 -5.61215602 -0.02449116 0 0 Z " fill="#000000" transform="translate(671.08984375,690.43359375)"/>
<path d="M0 0 C1.17728165 -0.00619858 2.35456329 -0.01239716 3.56752014 -0.01878357 C6.05468927 -0.02588056 8.54190591 -0.02270995 11.02905273 -0.01000977 C14.83080686 0.00384485 18.63009472 -0.03020854 22.43164062 -0.06835938 C24.85026102 -0.06931068 27.26888449 -0.06745112 29.6875 -0.0625 C30.8220311 -0.07575821 31.95656219 -0.08901642 33.12547302 -0.10267639 C41.92287666 0.00089885 41.92287666 0.00089885 45.61157227 2.85571289 C48.69391226 6.4906806 48.69391226 6.4906806 48.91015625 9.56640625 C48.98991699 10.60740479 48.98991699 10.60740479 49.07128906 11.66943359 C49.11687735 14.09356443 49.14537258 16.51688378 49.16015625 18.94140625 C49.18078125 19.77929688 49.20140625 20.6171875 49.22265625 21.48046875 C49.25490081 26.6073534 48.77434906 30.13241545 45.91015625 34.56640625 C41.95936821 37.85872962 38.91158899 37.67207032 33.91015625 37.56640625 C33.9258667 38.81252686 33.94157715 40.05864746 33.95776367 41.3425293 C34.01213698 45.97364823 34.04653336 50.60473903 34.07495117 55.23608398 C34.0900209 57.23906197 34.11048035 59.24200705 34.13647461 61.24487305 C34.17293752 64.12687306 34.18990086 67.00843609 34.203125 69.890625 C34.21860886 70.7835173 34.23409271 71.67640961 34.25004578 72.59635925 C34.25134278 77.40730273 34.11504504 80.71177404 30.91015625 84.56640625 C27.82729106 87.55905517 25.65059072 87.94286761 21.41015625 87.9296875 C20.35828125 87.92904297 19.30640625 87.92839844 18.22265625 87.92773438 C17.12953125 87.91162109 16.03640625 87.89550781 14.91015625 87.87890625 C13.81703125 87.88212891 12.72390625 87.88535156 11.59765625 87.88867188 C1.97912981 87.82384112 1.97912981 87.82384112 -1.08984375 85.56640625 C-4.61138554 80.45364192 -4.48687341 75.75905992 -4.3828125 69.79296875 C-4.37856766 68.86922455 -4.37432281 67.94548035 -4.36994934 66.9937439 C-4.35323048 64.05932795 -4.31559091 61.12561269 -4.27734375 58.19140625 C-4.26228813 56.19532246 -4.24860126 54.19922784 -4.23632812 52.203125 C-4.2033492 47.32395103 -4.15161389 42.44529722 -4.08984375 37.56640625 C-5.188125 37.58960938 -6.28640625 37.6128125 -7.41796875 37.63671875 C-11.47563124 37.55901883 -13.00149659 37.14002888 -16.08984375 34.56640625 C-19.43346475 29.36969409 -19.51774803 24.97261585 -19.40234375 19.00390625 C-19.40556641 18.16666016 -19.40878906 17.32941406 -19.41210938 16.46679688 C-19.36336822 10.87042612 -19.06295849 6.83617441 -15.26464844 2.46679688 C-10.36211634 -0.46778555 -5.61215602 -0.02449116 0 0 Z " fill="#000000" transform="translate(287.08984375,690.43359375)"/>
<path d="M0 0 C1.62711914 -0.02416992 1.62711914 -0.02416992 3.28710938 -0.04882812 C4.86008789 -0.04979492 4.86008789 -0.04979492 6.46484375 -0.05078125 C7.41866943 -0.05376221 8.37249512 -0.05674316 9.35522461 -0.05981445 C12.64995365 0.39328878 14.45045151 1.25767357 17.0625 3.3125 C19.16975645 7.37379165 19.32048848 10.87715836 19.3371582 15.41015625 C19.34226913 16.105112 19.34738007 16.80006775 19.35264587 17.51608276 C19.36649249 19.80247725 19.36558914 22.0885687 19.36328125 24.375 C19.36717037 25.9701346 19.37150548 27.56526816 19.37626648 29.16040039 C19.38371767 32.4992204 19.38344503 35.83793463 19.37817383 39.17675781 C19.37237489 43.45067368 19.38932549 47.72415679 19.4125185 51.9980011 C19.42726367 55.29059368 19.42812659 58.58308215 19.42500877 61.8757019 C19.4255214 63.45133319 19.43074825 65.0269704 19.44082069 66.60256958 C19.45318595 68.80694588 19.44639417 71.01048048 19.43481445 73.21484375 C19.43544388 74.46773193 19.4360733 75.72062012 19.4367218 77.01147461 C19.03206477 80.58097038 18.19256528 82.45369434 16.0625 85.3125 C11.43462834 88.54100598 5.60026579 87.72103752 0.1875 87.75 C-0.88886719 87.78287109 -1.96523438 87.81574219 -3.07421875 87.84960938 C-11.94079318 87.90974027 -11.94079318 87.90974027 -15.6328125 84.97265625 C-19.18146545 80.87666869 -19.06960942 77.80568408 -19.09863281 72.54956055 C-19.10359772 71.86625671 -19.10856262 71.18295288 -19.11367798 70.47894287 C-19.12827904 68.21902456 -19.13509852 65.95917647 -19.140625 63.69921875 C-19.14637862 62.12604267 -19.15213633 60.5528666 -19.15789795 58.97969055 C-19.16840241 55.68022333 -19.17424855 52.38078042 -19.17773438 49.08129883 C-19.18321468 44.86125873 -19.20723492 40.641542 -19.23570633 36.4216032 C-19.25436638 33.17101616 -19.25954012 29.92050645 -19.26107025 26.66987038 C-19.26409026 25.11459398 -19.27209677 23.55931874 -19.28525543 22.00409508 C-19.30238522 19.82369045 -19.30041917 17.64406838 -19.29394531 15.46362305 C-19.29759094 14.22468796 -19.30123657 12.98575287 -19.30499268 11.70927429 C-18.89807178 7.94806074 -17.88429625 5.53597169 -15.9375 2.3125 C-11.41676796 -1.00884195 -5.3525323 -0.01584527 0 0 Z " fill="#000000" transform="translate(739.9375,690.6875)"/>
<path d="M0 0 C1.62711914 -0.02416992 1.62711914 -0.02416992 3.28710938 -0.04882812 C4.86008789 -0.04979492 4.86008789 -0.04979492 6.46484375 -0.05078125 C7.41866943 -0.05376221 8.37249512 -0.05674316 9.35522461 -0.05981445 C12.64995365 0.39328878 14.45045151 1.25767357 17.0625 3.3125 C19.16975645 7.37379165 19.32048848 10.87715836 19.3371582 15.41015625 C19.34226913 16.105112 19.34738007 16.80006775 19.35264587 17.51608276 C19.36649249 19.80247725 19.36558914 22.0885687 19.36328125 24.375 C19.36717037 25.9701346 19.37150548 27.56526816 19.37626648 29.16040039 C19.38371767 32.4992204 19.38344503 35.83793463 19.37817383 39.17675781 C19.37237489 43.45067368 19.38932549 47.72415679 19.4125185 51.9980011 C19.42726367 55.29059368 19.42812659 58.58308215 19.42500877 61.8757019 C19.4255214 63.45133319 19.43074825 65.0269704 19.44082069 66.60256958 C19.45318595 68.80694588 19.44639417 71.01048048 19.43481445 73.21484375 C19.43544388 74.46773193 19.4360733 75.72062012 19.4367218 77.01147461 C19.03206477 80.58097038 18.19256528 82.45369434 16.0625 85.3125 C11.43462834 88.54100598 5.60026579 87.72103752 0.1875 87.75 C-0.88886719 87.78287109 -1.96523437 87.81574219 -3.07421875 87.84960938 C-11.94079318 87.90974027 -11.94079318 87.90974027 -15.6328125 84.97265625 C-19.18146545 80.87666869 -19.06960942 77.80568408 -19.09863281 72.54956055 C-19.10359772 71.86625671 -19.10856262 71.18295288 -19.11367798 70.47894287 C-19.12827904 68.21902456 -19.13509852 65.95917647 -19.140625 63.69921875 C-19.14637862 62.12604267 -19.15213633 60.5528666 -19.15789795 58.97969055 C-19.16840241 55.68022333 -19.17424855 52.38078042 -19.17773438 49.08129883 C-19.18321468 44.86125873 -19.20723492 40.641542 -19.23570633 36.4216032 C-19.25436638 33.17101616 -19.25954012 29.92050645 -19.26107025 26.66987038 C-19.26409026 25.11459398 -19.27209677 23.55931874 -19.28525543 22.00409508 C-19.30238522 19.82369045 -19.30041917 17.64406838 -19.29394531 15.46362305 C-19.29759094 14.22468796 -19.30123657 12.98575287 -19.30499268 11.70927429 C-18.89807178 7.94806074 -17.88429625 5.53597169 -15.9375 2.3125 C-11.41676796 -1.00884195 -5.3525323 -0.01584527 0 0 Z " fill="#000000" transform="translate(247.9375,690.6875)"/>
<path d="M0 0 C5.94 0 11.88 0 18 0 C21.31385268 3.96728842 23.02551319 6.32893691 24.98388672 10.82421875 C26.54625885 14.16969217 28.44237851 17.30499583 30.32446289 20.47851562 C32.58339812 24.29925294 34.78594586 28.15308094 37 32 C37.33 21.44 37.66 10.88 38 0 C43.61 0 49.22 0 55 0 C55 22.11 55 44.22 55 67 C49.06 67 43.12 67 37 67 C30.89340342 59.92020568 30.89340342 59.92020568 29.42382812 56.74023438 C28.93378296 55.71289185 28.93378296 55.71289185 28.43383789 54.66479492 C28.10504639 53.9710376 27.77625488 53.27728027 27.4375 52.5625 C26.71546178 51.17044921 25.98698512 49.78171813 25.25195312 48.39648438 C23.92290856 45.87443195 22.63468791 43.33956506 21.38842773 40.77563477 C20.26030783 38.1549542 20.26030783 38.1549542 19 37 C18.67 46.9 18.34 56.8 18 67 C12.06 67 6.12 67 0 67 C0 44.89 0 22.78 0 0 Z " fill="#F9F5E7" transform="translate(854,701)"/>
<path d="M0 0 C5.94 0 11.88 0 18 0 C18.02505615 1.34223633 18.0501123 2.68447266 18.07592773 4.06738281 C18.1700979 9.04713492 18.27029529 14.02675067 18.37231445 19.00634766 C18.41562691 21.16158865 18.45730463 23.31686314 18.49731445 25.47216797 C18.55510618 28.57008967 18.61877523 31.66784334 18.68359375 34.765625 C18.70030624 35.72929993 18.71701874 36.69297485 18.73423767 37.68585205 C18.75418289 38.58648376 18.77412811 39.48711548 18.79467773 40.41503906 C18.81799416 41.60084564 18.81799416 41.60084564 18.84178162 42.81060791 C18.99857453 44.98027459 19.40615681 46.91136533 20 49 C23.69974059 50.18391699 27.13799438 50.27585754 31 50 C34.1850357 48.23984869 34.83296972 47.50109084 36 44 C36.11349848 42.54293083 36.17601475 41.08155041 36.20532227 39.62036133 C36.22526749 38.73967484 36.24521271 37.85898834 36.26576233 36.95161438 C36.29083107 35.53117073 36.29083107 35.53117073 36.31640625 34.08203125 C36.33718735 33.10965012 36.35796844 32.13726898 36.37937927 31.13542175 C36.44478748 28.02785335 36.50371929 24.92020015 36.5625 21.8125 C36.60569351 19.70637142 36.64930807 17.60025144 36.69335938 15.49414062 C36.80045999 10.32951409 36.90175219 5.16480222 37 0 C42.94 0 48.88 0 55 0 C55.09956624 6.3496453 55.17179656 12.69882685 55.21972656 19.04907227 C55.23972691 21.20507737 55.26693624 23.36102904 55.30175781 25.5168457 C55.35078853 28.63245912 55.37308514 31.74734971 55.390625 34.86328125 C55.41127014 35.81270096 55.43191528 36.76212067 55.45318604 37.74031067 C55.45613508 46.72166244 53.22715921 55.94121725 46.796875 62.5625 C39.79579592 68.16336327 31.531958 68.84943543 22.8515625 68.4453125 C15.752874 67.62457164 10.53127573 64.91425999 5.5625 59.8125 C0.09617169 52.43984684 -0.4370189 43.84164071 -0.29296875 34.9609375 C-0.28872391 33.95406891 -0.28447906 32.94720032 -0.28010559 31.90982056 C-0.2634716 28.73126121 -0.22584875 25.55336386 -0.1875 22.375 C-0.17243339 20.20443632 -0.15874847 18.03386258 -0.14648438 15.86328125 C-0.11361829 10.57527037 -0.06194345 5.28774696 0 0 Z " fill="#F6F2E4" transform="translate(586,701)"/>
<path d="M0 0 C0.81726563 0.4021875 1.63453125 0.804375 2.4765625 1.21875 C12.7849239 6.82450544 18.5355374 14.08640791 22.09375 25.25390625 C25.72300446 40.25586756 24.27453124 54.29275131 16.98046875 67.828125 C11.12500044 77.20611369 3.54624339 81.66998116 -6.6875 85.3125 C-18.57516685 87.78110824 -31.29020204 86.59560187 -41.78515625 80.33984375 C-51.12143613 73.48197301 -56.57459754 64.22972442 -59 53 C-59.38632319 49.32013041 -59.4216042 45.69726659 -59.375 42 C-59.39240234 40.61941406 -59.39240234 40.61941406 -59.41015625 39.2109375 C-59.35828233 26.93411008 -55.10993515 16.38876949 -46.875 7.25 C-35.26811339 -3.68327266 -14.4510771 -7.30859072 0 0 Z M-41 16 C-49.04350591 27.36918624 -50.15663207 38.44439324 -49 52 C-47.34952111 60.40908551 -41.9765806 67.56852919 -34.94921875 72.4140625 C-30.73175432 74.69067437 -26.80650811 75.66851668 -22 76 C-21.24976563 76.06316406 -20.49953125 76.12632812 -19.7265625 76.19140625 C-11.39048733 76.59900614 -3.64735905 74.43568894 2.9375 69.1875 C9.13069866 63.28991942 12.98621618 54.71249687 13.43359375 46.1953125 C13.45683399 44.50536762 13.45759017 42.81498526 13.4375 41.125 C13.43065186 40.24239502 13.42380371 39.35979004 13.41674805 38.45043945 C13.25656254 31.95842681 12.40970133 26.6343917 9 21 C8.63777344 20.3503125 8.27554688 19.700625 7.90234375 19.03125 C3.77174886 12.42229818 -2.62933147 9.04290813 -10 7 C-21.8452562 5.86811996 -32.46875882 7.08097513 -41 16 Z " fill="#020202" transform="translate(497,693)"/>
<path d="M0 0 C9.08088822 6.86653293 14.75751435 16.17144613 16.74609375 27.3203125 C18.14197672 43.2919261 16.12799531 56.01677609 6.74609375 69.3203125 C-0.60271704 77.50688772 -9.99426671 81.80621785 -20.89453125 82.578125 C-32.17795828 83.01734931 -42.47474888 81.4529971 -51.4453125 74.01171875 C-61.2423477 64.84948064 -65.63638124 55.15737761 -66.4765625 41.7734375 C-66.77778014 28.93894676 -64.64386761 18.89364183 -57.25390625 8.3203125 C-56.51140625 7.2478125 -55.76890625 6.1753125 -55.00390625 5.0703125 C-40.57669007 -9.35690368 -16.85189646 -11.32501694 0 0 Z M-47.4296875 12.12109375 C-55.35818585 21.6794333 -57.130011 32.24802468 -56.48486328 44.22509766 C-55.61633953 52.10424231 -52.05079013 59.92786238 -46.25390625 65.3203125 C-37.06619633 72.10625593 -28.63666238 73.36958266 -17.3828125 71.9609375 C-8.68601006 70.13522578 -2.43530188 65.12531693 2.4453125 57.75390625 C7.63727017 48.0096877 8.25978924 35.97556231 6.1328125 25.21875 C3.70437927 17.62320993 -0.6780176 11.03278508 -7.6328125 6.91015625 C-21.25248777 0.65004192 -36.23118715 1.64947374 -47.4296875 12.12109375 Z " fill="#020101" transform="translate(826.25390625,696.6796875)"/>
<path d="M0 0 C1.5390625 1.78125 1.5390625 1.78125 2 4 C0.8828125 7.015625 0.8828125 7.015625 -0.875 10.25 C-1.73738281 11.86648438 -1.73738281 11.86648438 -2.6171875 13.515625 C-3.07351563 14.33546875 -3.52984375 15.1553125 -4 16 C-5.62566606 15.52309796 -7.25051311 15.04340334 -8.875 14.5625 C-9.77992188 14.29566406 -10.68484375 14.02882813 -11.6171875 13.75390625 C-14 13 -14 13 -16 12 C-17.37342831 11.9310528 -18.75002102 11.91532292 -20.125 11.9375 C-22.043125 11.9684375 -22.043125 11.9684375 -24 12 C-24.33 13.65 -24.66 15.3 -25 17 C-24.45061768 17.25168945 -23.90123535 17.50337891 -23.33520508 17.76269531 C-20.82426833 18.91796447 -18.31840828 20.08386617 -15.8125 21.25 C-14.94818359 21.64574219 -14.08386719 22.04148437 -13.19335938 22.44921875 C-6.32817733 25.65823105 -0.31589585 28.87696448 3 36 C3.78827638 43.37476349 3.89601288 49.51592143 0 56 C-6.30566374 62.30566374 -12.43452996 64.16736302 -21.25 64.4375 C-30.49413561 64.25298632 -38.19655237 61.91589029 -46 57 C-44.45454854 51.52067211 -41.84456788 46.88570819 -39 42 C-38.34 42.268125 -37.68 42.53625 -37 42.8125 C-36.01 43.204375 -35.02 43.59625 -34 44 C-33.40703125 44.26425781 -32.8140625 44.52851562 -32.203125 44.80078125 C-27.0971679 46.95549514 -22.53026858 47.59662649 -17 47 C-16.01 46.505 -16.01 46.505 -15 46 C-15.17831366 44.07198456 -15.17831366 44.07198456 -16 42 C-17.87382802 40.55349554 -17.87382802 40.55349554 -20.26171875 39.44921875 C-21.13376953 38.99740234 -22.00582031 38.54558594 -22.90429688 38.08007812 C-24.7394562 37.16185455 -26.57537765 36.24515235 -28.41210938 35.33007812 C-35.0875447 31.86747154 -39.52094319 28.16932281 -43.375 21.6875 C-44.64757597 16.21542334 -45.07848692 10.41983613 -42.5625 5.25 C-39.51349154 0.6382381 -34.32249966 -2.86717267 -29.12109375 -4.640625 C-18.95492557 -6.3630697 -8.98779193 -5.23828364 0 0 Z " fill="#F8F4E7" transform="translate(423,705)"/>
<path d="M0 0 C0.99 0.66 1.98 1.32 3 2 C1.50829734 6.9723422 -0.60457417 11.41845739 -3 16 C-6.11487222 15.52804966 -8.43644238 14.79413095 -11.3125 13.4375 C-15.68100565 11.73452322 -18.36101333 11.68549243 -23 12 C-23.66 12.33 -24.32 12.66 -25 13 C-24.7504263 14.94918408 -24.7504263 14.94918408 -24 17 C-20.43101765 19.02017869 -16.79533122 20.64862351 -13.046875 22.3046875 C-5.6648705 25.73602125 0.26117564 29.52235128 4 37 C4.54663251 43.92751579 4.68216779 49.98579261 1 56 C-5.16373455 62.45724572 -12.02916615 64.14698179 -20.8125 64.4375 C-29.78257961 64.24334243 -37.43714352 61.77294197 -45 57 C-43.45454854 51.52067211 -40.84456788 46.88570819 -38 42 C-37.23816406 42.3609375 -36.47632813 42.721875 -35.69140625 43.09375 C-29.09503788 46.05840994 -24.23300208 47.69996794 -17 47 C-16.01 46.505 -16.01 46.505 -15 46 C-14.90741125 43.61197209 -14.90741125 43.61197209 -16 41 C-18.53993836 39.47424197 -20.86619383 38.29056407 -23.5625 37.125 C-31.08161843 33.62112241 -36.97281211 30.06778372 -42 23.3125 C-43.91810624 16.95877309 -44.22186859 10.53424597 -41.3125 4.5 C-29.76306251 -7.98587837 -14.54043672 -7.84043156 0 0 Z " fill="#F9F5E7" transform="translate(974,705)"/>
<path d="M0 0 C15.84 0 31.68 0 48 0 C48 5.61 48 11.22 48 17 C43.05 17 38.1 17 33 17 C33 33.5 33 50 33 67 C27.06 67 21.12 67 15 67 C15 50.5 15 34 15 17 C10.05 17 5.1 17 0 17 C0 11.39 0 5.78 0 0 Z " fill="#F4F1E3" transform="translate(662,701)"/>
<path d="M0 0 C15.84 0 31.68 0 48 0 C48 5.61 48 11.22 48 17 C43.05 17 38.1 17 33 17 C33 33.5 33 50 33 67 C27.06 67 21.12 67 15 67 C15 50.5 15 34 15 17 C10.05 17 5.1 17 0 17 C0 11.39 0 5.78 0 0 Z " fill="#F4F1E3" transform="translate(278,701)"/>
<path d="M0 0 C2.3125 1.125 2.3125 1.125 4 3 C5.31585514 7.82925298 4.76777846 10.55268116 2.75390625 15.078125 C2.24988281 16.23127197 1.74585938 17.38441895 1.2265625 18.57250977 C0.67244185 19.79859619 0.11774351 21.02442167 -0.4375 22.25 C-0.99470362 23.5058911 -1.55068703 24.76232427 -2.10546875 26.01928711 C-3.2111782 28.5193336 -4.32502182 31.01551408 -5.44482422 33.50927734 C-6.80981113 36.57310511 -8.13735636 39.64816558 -9.44140625 42.73828125 C-9.97133179 43.98013184 -9.97133179 43.98013184 -10.51196289 45.24707031 C-11.15217883 46.7473935 -11.78590506 48.25050929 -12.41186523 49.75683594 C-14.07610108 53.57976467 -15.40097503 55.87370268 -19 58 C-21.58007812 58.38768005 -21.58007812 58.38768005 -24.53125 58.40405273 C-26.19317383 58.42307899 -26.19317383 58.42307899 -27.88867188 58.44248962 C-29.08041016 58.43955399 -30.27214844 58.43661835 -31.5 58.43359375 C-32.72783203 58.4388356 -33.95566406 58.44407745 -35.22070312 58.44947815 C-37.81639856 58.45590099 -40.41212308 58.45455801 -43.0078125 58.44604492 C-46.98490041 58.43753232 -50.96055392 58.46630021 -54.9375 58.49804688 C-57.4583329 58.49965884 -59.97916835 58.49908145 -62.5 58.49609375 C-64.28760742 58.51294472 -64.28760742 58.51294472 -66.11132812 58.53013611 C-67.21927734 58.52075516 -68.32722656 58.51137421 -69.46875 58.50170898 C-70.44263672 58.50154282 -71.41652344 58.50137665 -72.41992188 58.50120544 C-75.76026385 57.8523113 -76.94930675 56.67220172 -79 54 C-79.73437317 48.02010418 -79.73437317 48.02010418 -77.7808075 45.30644226 C-75.42280376 43.57655526 -73.97944183 43.63743495 -71.06958008 43.65942383 C-69.56836357 43.65976372 -69.56836357 43.65976372 -68.03681946 43.66011047 C-66.4195118 43.68333626 -66.4195118 43.68333626 -64.76953125 43.70703125 C-63.66397385 43.71127609 -62.55841644 43.71552094 -61.4193573 43.71989441 C-57.88349188 43.73670563 -54.34819355 43.77436315 -50.8125 43.8125 C-48.41732593 43.82754364 -46.02214294 43.8412326 -43.62695312 43.85351562 C-37.75110815 43.88661715 -31.87559458 43.93684107 -26 44 C-25.73171387 43.16074478 -25.73171387 43.16074478 -25.45800781 42.30453491 C-23.78383637 37.16215652 -21.91407101 32.18101159 -19.75 27.2265625 C-19.45061523 26.53613861 -19.15123047 25.84571472 -18.84277344 25.1343689 C-18.21621475 23.69335333 -17.58761858 22.25322203 -16.95703125 20.81396484 C-15.9945205 18.61246705 -15.04393753 16.40605861 -14.09375 14.19921875 C-13.47988328 12.79135399 -12.86532467 11.38379066 -12.25 9.9765625 C-11.82799316 8.99219711 -11.82799316 8.99219711 -11.39746094 7.98794556 C-8.68003221 1.84326511 -7.03857113 -0.86186585 0 0 Z " fill="#FFFFFF" transform="translate(957,496)"/>
<path d="M0 0 C5.61 0 11.22 0 17 0 C17 16.83 17 33.66 17 51 C23.6 51 30.2 51 37 51 C37 56.28 37 61.56 37 67 C24.79 67 12.58 67 0 67 C0 44.89 0 22.78 0 0 Z " fill="#FDF9EB" transform="translate(532,701)"/>
<path d="M0 0 C2.65450627 2.19743896 4.32191881 3.85787821 6.25 6.75 C6.1184799 10.43256285 5.98329557 12.84748237 3.625 15.75 C-0.02854101 17.28833306 -1.94937885 16.89018634 -5.75 15.75 C-7.81609919 14.14351123 -9.67732785 12.39183527 -11.58203125 10.59765625 C-17.28553524 5.73683213 -24.42391977 3.00388681 -31.75 1.75 C-32.81734375 1.53150391 -32.81734375 1.53150391 -33.90625 1.30859375 C-45.16230173 -0.47361444 -58.30399969 2.41524597 -67.75 8.75 C-69.49269525 10.19213964 -71.22167851 11.65098844 -72.9375 13.125 C-77.24935567 16.71821306 -77.24935567 16.71821306 -81.6875 17 C-86.33884565 15.10149157 -86.33884565 15.10149157 -87.75 11.75 C-88.03703441 8.01855261 -87.55293831 5.77999027 -85.23046875 2.80078125 C-61.98297348 -19.82441013 -24.88260545 -19.41272236 0 0 Z " fill="#FFFFFF" transform="translate(924.75,458.25)"/>
<path d="M0 0 C5.94 0 11.88 0 18 0 C18 22.11 18 44.22 18 67 C12.06 67 6.12 67 0 67 C0 44.89 0 22.78 0 0 Z " fill="#F4F0E3" transform="translate(731,701)"/>
<path d="M0 0 C5.94 0 11.88 0 18 0 C18 22.11 18 44.22 18 67 C12.06 67 6.12 67 0 67 C0 44.89 0 22.78 0 0 Z " fill="#F4F0E3" transform="translate(239,701)"/>
<path d="M0 0 C5.99378439 4.50710004 5.99378439 4.50710004 7.36328125 7.24609375 C7.73828125 10.12109375 7.73828125 10.12109375 7.36328125 13.24609375 C4.97844422 15.83534538 3.46578286 17.11847298 -0.06640625 17.52734375 C-3.13205384 17.19189295 -4.25316206 16.3551463 -6.57421875 14.37109375 C-12.14351238 9.97373714 -17.0049496 8.77753019 -24.046875 8.92578125 C-29.71171915 9.62641054 -34.25828631 12.29179437 -38.88671875 15.49609375 C-41.88890799 17.40657781 -43.16656372 17.9766527 -46.63671875 17.24609375 C-49.83765028 15.08330217 -50.53100608 13.71299136 -51.38671875 9.93359375 C-50.27391646 4.46231584 -47.16812165 2.26453238 -42.63671875 -0.75390625 C-29.3583332 -7.92380122 -12.81960371 -8.52741047 0 0 Z " fill="#FFFFFF" transform="translate(905.63671875,474.75390625)"/>
<path d="M0 0 C3.63 -0.103125 7.26 -0.20625 11 -0.3125 C12.69189453 -0.38078003 12.69189453 -0.38078003 14.41796875 -0.45043945 C21.04360883 -0.54096962 26.09380576 0.25498682 31 5 C33.27754219 8.77358399 33.44072826 11.59271739 33 16 C31.63169044 20.22932047 30.2609161 23.0972987 26.59375 25.72265625 C21.41275107 27.56416348 16.57298895 27.31732344 11.125 27.1875 C7.45375 27.125625 3.7825 27.06375 0 27 C0 18.09 0 9.18 0 0 Z M11 12 C11 12.99 11 13.98 11 15 C14.3 15 17.6 15 21 15 C21 14.01 21 13.02 21 12 C17.7 12 14.4 12 11 12 Z " fill="#080808" transform="translate(512,544)"/>
<path d="M0 0 C4.79052446 2.21101129 7.21902787 5.00706311 9.3046875 9.73046875 C11.3811509 16.5081386 10.42659431 22.82202522 7.2578125 29.08203125 C5.24874844 32.14554197 3.3371384 33.52395802 0 35 C-4.37538006 35.83132221 -7.27749103 35.34080612 -11.3125 33.4375 C-15.67640429 29.47954029 -16.77289911 26.38315747 -17.31640625 20.6796875 C-17.54809323 13.63939275 -17.55367026 8.53824761 -13 3 C-9.102901 -0.35583525 -4.98379418 -0.85184694 0 0 Z M-5 10 C-7.20914 13.31371 -7.22481553 14.3446021 -7.125 18.1875 C-7.10695313 19.08855469 -7.08890625 19.98960937 -7.0703125 20.91796875 C-7.04710937 21.60503906 -7.02390625 22.29210937 -7 23 C-5.02 23.99 -5.02 23.99 -3 25 C-0.33751917 22.33751917 -0.28167295 20.73216655 0 17 C-0.85296678 13.21940955 -0.85296678 13.21940955 -2 10 C-2.99 10 -3.98 10 -5 10 Z " fill="#050504" transform="translate(483,717)"/>
<path d="M0 0 C4.39991102 1.46663701 7.1583118 3.43003105 9.30859375 7.640625 C11.15602944 13.94486881 11.17240415 21.25023873 8.59765625 27.2890625 C6.28516255 31.21295157 4.36054251 33.54648583 0 35 C-5.03159842 35.49491132 -7.00123072 35.64071992 -11.3125 32.875 C-16.42805005 27.40255111 -17.51499407 23.09872341 -17.28515625 15.75390625 C-16.72863836 10.37931566 -15.45981585 6.38860532 -11.4375 2.5625 C-7.33589774 -0.06673222 -4.92949837 -0.32863322 0 0 Z M-5 10 C-7.33486745 13.64823039 -7.30399283 16.74410043 -7 21 C-6.11935073 23.35369807 -6.11935073 23.35369807 -5 25 C-3.02463255 24.65213292 -3.02463255 24.65213292 -1 24 C0.16983345 21.6603331 0.1661241 20.16608473 0.1875 17.5625 C0.20167969 16.78003906 0.21585938 15.99757813 0.23046875 15.19140625 C0.14086064 12.70794013 0.14086064 12.70794013 -2 10 C-2.99 10 -3.98 10 -5 10 Z " fill="#040404" transform="translate(805,717)"/>
<path d="M0 0 C4.56313093 -0.10786127 9.12371597 -0.18726757 13.6875 -0.25 C14.98107422 -0.28351562 16.27464844 -0.31703125 17.60742188 -0.3515625 C18.85458984 -0.36445312 20.10175781 -0.37734375 21.38671875 -0.390625 C22.53358154 -0.41157227 23.68044434 -0.43251953 24.86206055 -0.45410156 C28.66251673 0.09587498 30.29454623 1.3296175 33 4 C33.6640625 6 33.6640625 6 33.625 8 C33.63789063 8.66 33.65078125 9.32 33.6640625 10 C32.62283089 13.13594462 30.71541283 14.20403708 28 16 C24.86206055 16.45410156 24.86206055 16.45410156 21.38671875 16.390625 C20.13955078 16.37773438 18.89238281 16.36484375 17.60742188 16.3515625 C16.31384766 16.31804688 15.02027344 16.28453125 13.6875 16.25 C12.37458984 16.23195313 11.06167969 16.21390625 9.70898438 16.1953125 C6.47234385 16.14823409 3.23607897 16.076493 0 16 C0 10.72 0 5.44 0 0 Z " fill="#040404" transform="translate(269,584)"/>
<path d="M0 0 C4.58395782 -0.10771702 9.16539636 -0.18719721 13.75 -0.25 C15.05195313 -0.28351562 16.35390625 -0.31703125 17.6953125 -0.3515625 C18.94570313 -0.36445312 20.19609375 -0.37734375 21.484375 -0.390625 C22.63647461 -0.41157227 23.78857422 -0.43251953 24.97558594 -0.45410156 C28.63146493 0.09481149 29.76793862 1.116418 32 4 C32.53125 6 32.53125 6 32.5 8 C32.5103125 8.66 32.520625 9.32 32.53125 10 C31.74602769 12.95613104 30.37494875 14.09984561 28 16 C24.97558594 16.45410156 24.97558594 16.45410156 21.484375 16.390625 C20.23398437 16.37773438 18.98359375 16.36484375 17.6953125 16.3515625 C15.74238281 16.30128906 15.74238281 16.30128906 13.75 16.25 C12.43257813 16.23195313 11.11515625 16.21390625 9.7578125 16.1953125 C6.50489844 16.14816882 3.25235783 16.07642616 0 16 C0 10.72 0 5.44 0 0 Z " fill="#070707" transform="translate(269,544)"/>
<path d="M0 0 C3.74785043 2.08213913 4.79482295 3.2947039 6 7.4375 C6 11.48459923 5.72493174 13.01960591 3 16 C-1.07721879 17.84628775 -3.04128999 18.32559963 -7.3125 16.875 C-11.21126761 14.15492958 -11.21126761 14.15492958 -12 11 C-11.92484951 6.79157236 -11.65198603 4.72649872 -8.8125 1.5625 C-5.45611204 -0.30215998 -3.7822566 -0.6303761 0 0 Z " fill="#FFFFFF" transform="translate(887,499)"/>
</svg>
